<svg xmlns="http://www.w3.org/2000/svg" width="41" height="40" viewBox="0 0 41 40">
  <a href="https://www.instagram.com/?hl=ja" target="_blank">
    <title>Instagram</title>
    <circle cx="20" cy="20" r="20" fill="#fff"/>
    <g transform="translate(8.226 8.226)">
      <path d="M11.925,2.12a36.565,36.565,0,0,1,4.77.133,6.146,6.146,0,0,1,2.253.4A4.653,4.653,0,0,1,21.2,4.9a6.146,6.146,0,0,1,.4,2.253c0,1.193.133,1.59.133,4.77A36.566,36.566,0,0,1,21.6,16.7a6.146,6.146,0,0,1-.4,2.253A4.653,4.653,0,0,1,18.948,21.2a6.146,6.146,0,0,1-2.253.4c-1.193,0-1.59.133-4.77.133a36.566,36.566,0,0,1-4.77-.133A6.146,6.146,0,0,1,4.9,21.2,4.653,4.653,0,0,1,2.65,18.948a6.146,6.146,0,0,1-.4-2.253c0-1.193-.133-1.59-.133-4.77a36.565,36.565,0,0,1,.133-4.77A6.146,6.146,0,0,1,2.65,4.9a4.759,4.759,0,0,1,.928-1.325A2.24,2.24,0,0,1,4.9,2.65a6.146,6.146,0,0,1,2.253-.4,36.565,36.565,0,0,1,4.77-.133m0-2.12a39.151,39.151,0,0,0-4.9.133,8.18,8.18,0,0,0-2.915.53,5.187,5.187,0,0,0-2.12,1.325A5.187,5.187,0,0,0,.663,4.108a6.037,6.037,0,0,0-.53,2.915A39.151,39.151,0,0,0,0,11.925a39.151,39.151,0,0,0,.133,4.9,8.18,8.18,0,0,0,.53,2.915,5.187,5.187,0,0,0,1.325,2.12,5.187,5.187,0,0,0,2.12,1.325,8.18,8.18,0,0,0,2.915.53,39.151,39.151,0,0,0,4.9.133,39.151,39.151,0,0,0,4.9-.133,8.18,8.18,0,0,0,2.915-.53,5.559,5.559,0,0,0,3.445-3.445,8.18,8.18,0,0,0,.53-2.915c0-1.325.133-1.723.133-4.9a39.151,39.151,0,0,0-.133-4.9,8.18,8.18,0,0,0-.53-2.915,5.187,5.187,0,0,0-1.325-2.12A5.187,5.187,0,0,0,19.743.663a8.18,8.18,0,0,0-2.915-.53A39.151,39.151,0,0,0,11.925,0m0,5.83a6,6,0,0,0-6.1,6.1,6.1,6.1,0,1,0,6.1-6.1m0,10.07A3.9,3.9,0,0,1,7.95,11.925,3.9,3.9,0,0,1,11.925,7.95,3.9,3.9,0,0,1,15.9,11.925,3.9,3.9,0,0,1,11.925,15.9m6.36-11.793a1.458,1.458,0,1,0,1.458,1.458,1.47,1.47,0,0,0-1.458-1.458" fill="#73a605" fill-rule="evenodd"/>
    </g>
  </a>
</svg>
