<svg xmlns="http://www.w3.org/2000/svg" width="40" height="40" viewBox="0 0 40 40">
  <a href="https://twitter.com/" target="_blank">
    <circle cx="20" cy="20" r="20" fill="#fff"/>
    <g transform="translate(8.061 8.061)">
      <rect width="24" height="24" transform="translate(-0.061 -0.061)" fill="none"/>
      <path d="M45.55,21.338A13.784,13.784,0,0,0,59.457,7.431V6.768a10.767,10.767,0,0,0,2.384-2.517,11,11,0,0,1-2.781.795A5.153,5.153,0,0,0,61.179,2.4a12.149,12.149,0,0,1-3.046,1.192A4.73,4.73,0,0,0,54.557,2a4.976,4.976,0,0,0-4.9,4.9,2.582,2.582,0,0,0,.132,1.06A13.694,13.694,0,0,1,39.722,2.795a5.072,5.072,0,0,0-.662,2.517,5.262,5.262,0,0,0,2.119,4.106,4.465,4.465,0,0,1-2.252-.662h0A4.841,4.841,0,0,0,42.9,13.523a4.083,4.083,0,0,1-1.325.132,2.254,2.254,0,0,1-.927-.132,5.018,5.018,0,0,0,4.636,3.444,10,10,0,0,1-6.093,2.119A3.667,3.667,0,0,1,38,18.954a12.5,12.5,0,0,0,7.55,2.384" transform="translate(-38 0.98)" fill="#73a605" fill-rule="evenodd"/>
    </g>
  </a>
</svg>
